<svg display="block" role="presentation" viewBox="0 0 237 56" xmlns="http://www.w3.org/2000/svg"><path d="M 0 0 L 44.211 0 L 44.211 33.84 C 44.211 46.048 34.314 56 22.105 56 C 9.897 56 0 46.048 0 33.84 Z M 22.105 52.408 C 32.279 52.408 40.674 44.013 40.674 33.84 L 40.674 3.537 L 22.105 3.537 Z M 7.393 20.613 L 7.393 20.926 L 10.23 20.926 L 10.23 20.613 L 9.733 20.466 C 9.499 20.404 9.346 20.288 9.272 20.116 C 9.199 19.944 9.162 19.729 9.162 19.471 L 9.162 11.421 L 16.266 20.926 L 17.297 20.926 L 17.297 10.353 C 17.297 10.107 17.322 9.898 17.371 9.726 C 17.433 9.542 17.58 9.413 17.813 9.339 L 18.274 9.211 L 18.274 8.842 L 15.529 8.842 L 15.529 9.211 L 16.082 9.339 C 16.327 9.401 16.487 9.524 16.561 9.708 C 16.647 9.892 16.69 10.107 16.69 10.353 L 16.69 17.187 L 10.488 8.842 L 7.338 8.842 L 7.338 9.211 L 7.67 9.45 C 7.817 9.56 7.934 9.659 8.02 9.745 C 8.106 9.831 8.186 9.935 8.259 10.058 C 8.345 10.168 8.444 10.34 8.554 10.573 L 8.554 19.49 C 8.554 19.735 8.505 19.944 8.407 20.116 C 8.321 20.288 8.161 20.404 7.928 20.466 Z M 9.505 42.497 L 9.505 42.258 L 9.1 42.129 C 8.83 42.031 8.676 41.896 8.639 41.724 C 8.603 41.552 8.627 41.331 8.713 41.061 L 9.505 38.721 L 13.576 38.721 L 14.35 41.098 C 14.436 41.367 14.448 41.595 14.387 41.779 C 14.338 41.963 14.178 42.098 13.908 42.184 L 13.595 42.276 L 13.595 42.497 L 18.274 42.497 L 18.274 42.276 L 17.997 42.203 C 17.727 42.117 17.531 42.006 17.408 41.871 C 17.285 41.724 17.175 41.515 17.076 41.245 L 13.374 30.358 L 11.845 30.358 L 8.124 41.171 C 8.038 41.429 7.921 41.632 7.774 41.779 C 7.639 41.926 7.442 42.037 7.184 42.111 L 6.687 42.258 L 6.687 42.497 Z M 11.605 32.642 L 13.41 38.187 L 9.69 38.187 Z M 22.105 24.463 L 6.484 24.463 L 6.484 26.821 L 22.105 26.821 Z M 29.548 20.503 C 29.794 20.417 29.954 20.306 30.027 20.171 C 30.113 20.024 30.156 19.821 30.156 19.563 L 30.156 10.26 C 30.156 10.003 30.113 9.806 30.027 9.671 C 29.954 9.524 29.794 9.407 29.548 9.321 L 29.18 9.211 L 29.18 8.842 L 33.6 8.842 L 33.6 9.211 L 33.232 9.321 C 32.998 9.407 32.839 9.524 32.753 9.671 C 32.667 9.806 32.624 10.003 32.624 10.26 L 32.624 19.563 C 32.624 19.821 32.667 20.024 32.753 20.171 C 32.839 20.306 32.998 20.417 33.232 20.503 L 33.6 20.613 L 33.6 20.926 L 29.18 20.926 L 29.18 20.613 Z M 29.216 41.899 C 29.732 41.789 29.99 41.488 29.99 40.997 L 29.99 33.389 C 29.99 32.529 29.983 31.669 29.971 30.81 L 28.516 30.81 C 28.123 30.81 27.834 30.914 27.65 31.123 C 27.466 31.331 27.282 31.626 27.097 32.007 L 26.453 33.37 L 25.937 33.37 L 26.066 30.358 L 36.787 30.358 L 36.842 33.37 L 36.326 33.37 L 35.682 32.007 C 35.498 31.626 35.313 31.331 35.129 31.123 C 34.945 30.914 34.656 30.81 34.264 30.81 L 32.79 30.81 L 32.79 40.997 C 32.79 41.5 33.048 41.801 33.563 41.899 L 34.319 42.046 L 34.319 42.433 L 28.479 42.433 L 28.479 42.046 Z M 37.726 24.463 L 22.105 24.463 L 22.105 26.821 L 37.726 26.821 Z" fill="rgb(153, 27, 27)" height="56px" id="c4V0cq18h" width="44.2109px"/><path d="M 3.134 11.896 L 1.119 11.896 L 1.119 0.208 L 3.15 0.208 L 8.635 8.49 L 8.635 0.208 L 10.649 0.208 L 10.649 11.896 L 8.635 11.896 L 3.134 3.614 Z M 14.324 11.896 L 12.101 11.896 L 14.82 8.027 L 12.101 3.997 L 14.372 3.997 L 16.115 6.683 L 17.794 3.997 L 19.984 3.997 L 17.298 7.995 L 19.904 11.896 L 17.666 11.896 L 15.987 9.29 Z M 24.145 11.896 L 22.194 11.896 L 22.194 5.628 L 20.676 5.628 L 20.676 3.997 L 22.194 3.997 L 22.194 1.535 L 24.145 1.535 L 24.145 3.997 L 25.68 3.997 L 25.68 5.628 L 24.145 5.628 Z M 29.611 11.896 L 26.125 0.208 L 28.252 0.208 L 30.107 6.38 C 30.282 7.02 30.458 7.675 30.634 8.699 C 30.826 7.659 31.002 7.051 31.21 6.38 L 33.049 0.208 L 35.303 0.208 L 37.11 6.38 C 37.302 7.036 37.478 7.707 37.67 8.699 C 37.894 7.611 38.053 6.988 38.229 6.396 L 40.116 0.208 L 42.195 0.208 L 38.645 11.896 L 36.662 11.896 L 34.168 3.39 L 31.625 11.896 Z M 44.608 12.104 C 42.929 12.104 41.906 11.129 41.906 9.642 C 41.906 8.187 42.961 7.275 44.832 7.131 L 47.198 6.955 L 47.198 6.78 C 47.198 5.708 46.559 5.276 45.568 5.276 C 44.416 5.276 43.776 5.756 43.776 6.588 L 42.114 6.588 C 42.114 4.877 43.521 3.758 45.663 3.758 C 47.79 3.758 49.101 4.909 49.101 7.099 L 49.101 11.896 L 47.39 11.896 L 47.246 10.729 C 46.911 11.545 45.839 12.104 44.608 12.104 Z M 45.248 10.633 C 46.447 10.633 47.214 9.914 47.214 8.698 L 47.214 8.283 L 45.568 8.411 C 44.352 8.522 43.889 8.922 43.889 9.562 C 43.889 10.281 44.368 10.633 45.248 10.633 Z M 52.944 11.896 L 49.81 3.997 L 51.888 3.997 L 53.263 7.627 C 53.599 8.57 53.871 9.386 53.967 9.818 C 54.079 9.322 54.366 8.49 54.703 7.627 L 56.142 3.997 L 58.156 3.997 L 54.862 11.896 Z M 62.421 12.104 C 60.071 12.104 58.423 10.393 58.423 7.947 C 58.423 5.468 60.039 3.758 62.357 3.758 C 64.723 3.758 66.227 5.341 66.227 7.803 L 66.227 8.394 L 60.278 8.411 C 60.422 9.801 61.158 10.505 62.453 10.505 C 63.524 10.505 64.228 10.09 64.452 9.338 L 66.258 9.338 C 65.923 11.065 64.483 12.104 62.421 12.104 Z M 62.373 5.357 C 61.222 5.357 60.518 5.98 60.326 7.163 L 64.292 7.163 C 64.292 6.076 63.54 5.357 62.373 5.357 Z M 71.634 7.931 C 71.634 5.468 73.409 3.774 75.855 3.774 C 78.301 3.774 80.076 5.468 80.076 7.931 C 80.076 10.393 78.301 12.088 75.855 12.088 C 73.409 12.088 71.634 10.393 71.634 7.931 Z M 73.584 7.931 C 73.584 9.37 74.512 10.345 75.855 10.345 C 77.198 10.345 78.125 9.37 78.125 7.931 C 78.125 6.492 77.198 5.516 75.855 5.516 C 74.512 5.516 73.584 6.492 73.584 7.931 Z M 80.807 3.997 L 81.943 3.997 L 81.943 3.038 C 81.943 0.895 83.078 0 84.789 0 C 85.093 0 85.461 0.016 85.796 0.08 L 85.796 1.743 L 85.109 1.743 C 84.117 1.743 83.878 2.254 83.878 3.038 L 83.878 3.997 L 85.765 3.997 L 85.765 5.628 L 83.878 5.628 L 83.878 11.896 L 81.943 11.896 L 81.943 5.628 L 80.807 5.628 Z M 93.654 0.208 L 93.654 11.896 L 91.607 11.896 L 91.607 0.208 Z M 97.908 11.896 L 95.957 11.896 L 95.957 3.997 L 97.764 3.997 L 97.923 5.021 C 98.419 4.221 99.378 3.758 100.45 3.758 C 102.433 3.758 103.456 4.989 103.456 7.035 L 103.456 11.896 L 101.505 11.896 L 101.505 7.499 C 101.505 6.172 100.85 5.532 99.842 5.532 C 98.643 5.532 97.908 6.364 97.908 7.643 Z M 107.323 11.896 L 105.373 11.896 L 105.373 3.997 L 107.179 3.997 L 107.339 5.021 C 107.835 4.221 108.794 3.758 109.866 3.758 C 111.848 3.758 112.871 4.989 112.871 7.035 L 112.871 11.896 L 110.921 11.896 L 110.921 7.499 C 110.921 6.172 110.265 5.532 109.258 5.532 C 108.059 5.532 107.323 6.364 107.323 7.643 Z M 114.324 7.931 C 114.324 5.468 116.099 3.774 118.546 3.774 C 120.992 3.774 122.767 5.468 122.767 7.931 C 122.767 10.393 120.992 12.088 118.546 12.088 C 116.099 12.088 114.324 10.393 114.324 7.931 Z M 116.275 7.931 C 116.275 9.37 117.203 10.345 118.546 10.345 C 119.889 10.345 120.816 9.37 120.816 7.931 C 120.816 6.492 119.889 5.516 118.546 5.516 C 117.203 5.516 116.275 6.492 116.275 7.931 Z M 126.161 11.896 L 123.028 3.997 L 125.106 3.997 L 126.481 7.627 C 126.817 8.57 127.089 9.386 127.185 9.818 C 127.297 9.322 127.584 8.49 127.92 7.627 L 129.359 3.997 L 131.374 3.997 L 128.08 11.896 Z M 134.455 12.104 C 132.776 12.104 131.753 11.129 131.753 9.642 C 131.753 8.187 132.808 7.275 134.679 7.131 L 137.046 6.955 L 137.046 6.78 C 137.046 5.708 136.406 5.276 135.415 5.276 C 134.263 5.276 133.624 5.756 133.624 6.588 L 131.961 6.588 C 131.961 4.877 133.368 3.758 135.511 3.758 C 137.637 3.758 138.949 4.909 138.949 7.099 L 138.949 11.896 L 137.238 11.896 L 137.094 10.729 C 136.758 11.545 135.687 12.104 134.455 12.104 Z M 135.095 10.633 C 136.294 10.633 137.062 9.914 137.062 8.698 L 137.062 8.283 L 135.415 8.411 C 134.2 8.522 133.736 8.922 133.736 9.562 C 133.736 10.281 134.215 10.633 135.095 10.633 Z M 143.442 11.896 L 141.491 11.896 L 141.491 5.628 L 139.972 5.628 L 139.972 3.997 L 141.491 3.997 L 141.491 1.535 L 143.442 1.535 L 143.442 3.997 L 144.977 3.997 L 144.977 5.628 L 143.442 5.628 Z M 147.165 2.414 C 146.493 2.414 145.966 1.887 145.966 1.231 C 145.966 0.575 146.493 0.064 147.165 0.064 C 147.804 0.064 148.332 0.575 148.332 1.231 C 148.332 1.887 147.804 2.414 147.165 2.414 Z M 146.19 11.896 L 146.19 3.997 L 148.14 3.997 L 148.14 11.896 Z M 149.692 7.931 C 149.692 5.468 151.467 3.774 153.913 3.774 C 156.36 3.774 158.135 5.468 158.135 7.931 C 158.135 10.393 156.36 12.088 153.913 12.088 C 151.467 12.088 149.692 10.393 149.692 7.931 Z M 151.642 7.931 C 151.642 9.37 152.57 10.345 153.913 10.345 C 155.256 10.345 156.184 9.37 156.184 7.931 C 156.184 6.492 155.256 5.516 153.913 5.516 C 152.57 5.516 151.642 6.492 151.642 7.931 Z M 161.631 11.896 L 159.681 11.896 L 159.681 3.997 L 161.488 3.997 L 161.647 5.021 C 162.143 4.221 163.102 3.758 164.174 3.758 C 166.156 3.758 167.18 4.989 167.18 7.035 L 167.18 11.896 L 165.229 11.896 L 165.229 7.499 C 165.229 6.172 164.573 5.532 163.566 5.532 C 162.367 5.532 161.631 6.364 161.631 7.643 Z M 174.381 2.414 C 173.71 2.414 173.182 1.887 173.182 1.231 C 173.182 0.575 173.71 0.064 174.381 0.064 C 175.021 0.064 175.548 0.575 175.548 1.231 C 175.548 1.887 175.021 2.414 174.381 2.414 Z M 173.406 11.896 L 173.406 3.997 L 175.357 3.997 L 175.357 11.896 Z M 179.323 11.896 L 177.372 11.896 L 177.372 3.997 L 179.179 3.997 L 179.339 5.021 C 179.835 4.221 180.794 3.758 181.865 3.758 C 183.848 3.758 184.871 4.989 184.871 7.035 L 184.871 11.896 L 182.92 11.896 L 182.92 7.499 C 182.92 6.172 182.265 5.532 181.258 5.532 C 180.058 5.532 179.323 6.364 179.323 7.643 Z M 2.127 31.317 L 0 31.317 L 4.221 19.629 L 6.316 19.629 L 10.537 31.317 L 8.379 31.317 L 7.435 28.615 L 3.07 28.615 Z M 5.005 23.114 L 3.678 26.888 L 6.844 26.888 L 5.5 23.114 C 5.404 22.811 5.293 22.459 5.261 22.219 C 5.213 22.443 5.117 22.794 5.005 23.114 Z M 14.602 31.525 C 12.316 31.525 10.892 29.846 10.892 27.399 C 10.892 24.937 12.331 23.178 14.714 23.178 C 15.817 23.178 16.793 23.642 17.288 24.425 L 17.288 19.421 L 19.223 19.421 L 19.223 31.317 L 17.432 31.317 L 17.304 30.086 C 16.825 30.997 15.801 31.525 14.602 31.525 Z M 15.034 29.734 C 16.393 29.734 17.272 28.758 17.272 27.336 C 17.272 25.912 16.393 24.921 15.034 24.921 C 13.675 24.921 12.843 25.929 12.843 27.336 C 12.843 28.743 13.675 29.734 15.034 29.734 Z M 23.494 31.317 L 20.36 23.418 L 22.439 23.418 L 23.814 27.048 C 24.15 27.991 24.422 28.806 24.518 29.238 C 24.63 28.743 24.917 27.911 25.253 27.048 L 26.692 23.418 L 28.707 23.418 L 25.413 31.317 Z M 31.788 31.525 C 30.11 31.525 29.086 30.55 29.086 29.062 C 29.086 27.608 30.142 26.696 32.012 26.552 L 34.379 26.376 L 34.379 26.201 C 34.379 25.129 33.739 24.697 32.748 24.697 C 31.597 24.697 30.957 25.177 30.957 26.008 L 29.294 26.008 C 29.294 24.298 30.701 23.178 32.844 23.178 C 34.97 23.178 36.281 24.329 36.281 26.52 L 36.281 31.317 L 34.571 31.317 L 34.427 30.15 C 34.091 30.965 33.019 31.525 31.788 31.525 Z M 32.428 30.054 C 33.627 30.054 34.395 29.334 34.395 28.119 L 34.395 27.703 L 32.748 27.831 C 31.532 27.943 31.069 28.343 31.069 28.982 C 31.069 29.702 31.549 30.054 32.428 30.054 Z M 40.148 31.317 L 38.198 31.317 L 38.198 23.418 L 40.005 23.418 L 40.165 24.442 C 40.66 23.642 41.62 23.178 42.691 23.178 C 44.673 23.178 45.697 24.409 45.697 26.456 L 45.697 31.317 L 43.746 31.317 L 43.746 26.92 C 43.746 25.593 43.09 24.953 42.083 24.953 C 40.884 24.953 40.148 25.785 40.148 27.064 Z M 47.15 27.351 C 47.15 24.905 48.765 23.178 51.099 23.178 C 53.258 23.178 54.729 24.377 54.936 26.28 L 52.986 26.28 C 52.762 25.385 52.107 24.921 51.179 24.921 C 49.932 24.921 49.1 25.864 49.1 27.351 C 49.1 28.839 49.868 29.766 51.115 29.766 C 52.09 29.766 52.778 29.286 52.986 28.423 L 54.953 28.423 C 54.713 30.262 53.178 31.525 51.115 31.525 C 48.717 31.525 47.15 29.862 47.15 27.351 Z M 59.938 31.525 C 57.588 31.525 55.941 29.814 55.941 27.368 C 55.941 24.889 57.556 23.178 59.874 23.178 C 62.241 23.178 63.743 24.761 63.743 27.223 L 63.743 27.815 L 57.796 27.831 C 57.939 29.222 58.675 29.926 59.97 29.926 C 61.041 29.926 61.745 29.51 61.969 28.758 L 63.776 28.758 C 63.44 30.485 62.001 31.525 59.938 31.525 Z M 59.89 24.777 C 58.739 24.777 58.035 25.401 57.844 26.584 L 61.809 26.584 C 61.809 25.497 61.058 24.777 59.89 24.777 Z M 68.551 31.525 C 66.264 31.525 64.841 29.846 64.841 27.399 C 64.841 24.937 66.28 23.178 68.663 23.178 C 69.766 23.178 70.741 23.642 71.237 24.425 L 71.237 19.421 L 73.172 19.421 L 73.172 31.317 L 71.381 31.317 L 71.253 30.086 C 70.773 30.997 69.75 31.525 68.551 31.525 Z M 68.982 29.734 C 70.342 29.734 71.221 28.758 71.221 27.336 C 71.221 25.912 70.342 24.921 68.982 24.921 C 67.623 24.921 66.792 25.929 66.792 27.336 C 66.792 28.743 67.623 29.734 68.982 29.734 Z M 78.779 21.515 L 78.779 19.629 L 87.669 19.629 L 87.669 21.515 L 84.247 21.515 L 84.247 31.317 L 82.201 31.317 L 82.201 21.515 Z M 91.136 31.525 C 88.786 31.525 87.139 29.814 87.139 27.368 C 87.139 24.889 88.754 23.178 91.073 23.178 C 93.439 23.178 94.942 24.761 94.942 27.223 L 94.942 27.815 L 88.994 27.831 C 89.138 29.222 89.873 29.926 91.169 29.926 C 92.24 29.926 92.943 29.51 93.167 28.758 L 94.974 28.758 C 94.638 30.485 93.199 31.525 91.136 31.525 Z M 91.089 24.777 C 89.937 24.777 89.234 25.401 89.042 26.584 L 93.007 26.584 C 93.007 25.497 92.256 24.777 91.089 24.777 Z M 96.04 27.351 C 96.04 24.905 97.654 23.178 99.989 23.178 C 102.148 23.178 103.618 24.377 103.826 26.28 L 101.876 26.28 C 101.652 25.385 100.996 24.921 100.069 24.921 C 98.822 24.921 97.99 25.864 97.99 27.351 C 97.99 28.839 98.758 29.766 100.005 29.766 C 100.98 29.766 101.668 29.286 101.876 28.423 L 103.842 28.423 C 103.603 30.262 102.068 31.525 100.005 31.525 C 97.606 31.525 96.04 29.862 96.04 27.351 Z M 107.245 31.317 L 105.295 31.317 L 105.295 19.421 L 107.261 19.421 L 107.261 24.442 C 107.757 23.674 108.684 23.178 109.82 23.178 C 111.77 23.178 112.793 24.409 112.793 26.456 L 112.793 31.317 L 110.843 31.317 L 110.843 26.92 C 110.843 25.593 110.187 24.953 109.196 24.953 C 107.965 24.953 107.245 25.816 107.245 27 Z M 116.661 31.317 L 114.71 31.317 L 114.71 23.418 L 116.517 23.418 L 116.677 24.442 C 117.172 23.642 118.132 23.178 119.203 23.178 C 121.186 23.178 122.209 24.409 122.209 26.456 L 122.209 31.317 L 120.258 31.317 L 120.258 26.92 C 120.258 25.593 119.603 24.953 118.596 24.953 C 117.396 24.953 116.661 25.785 116.661 27.064 Z M 123.662 27.351 C 123.662 24.889 125.437 23.194 127.884 23.194 C 130.33 23.194 132.105 24.889 132.105 27.351 C 132.105 29.814 130.33 31.509 127.884 31.509 C 125.437 31.509 123.662 29.814 123.662 27.351 Z M 125.613 27.351 C 125.613 28.79 126.54 29.766 127.884 29.766 C 129.226 29.766 130.154 28.79 130.154 27.351 C 130.154 25.912 129.226 24.937 127.884 24.937 C 126.54 24.937 125.613 25.912 125.613 27.351 Z M 135.618 31.317 L 133.683 31.317 L 133.683 19.421 L 135.618 19.421 Z M 137.2 27.351 C 137.2 24.889 138.975 23.194 141.421 23.194 C 143.868 23.194 145.643 24.889 145.643 27.351 C 145.643 29.814 143.868 31.509 141.421 31.509 C 138.975 31.509 137.2 29.814 137.2 27.351 Z M 139.151 27.351 C 139.151 28.79 140.078 29.766 141.421 29.766 C 142.764 29.766 143.692 28.79 143.692 27.351 C 143.692 25.912 142.764 24.937 141.421 24.937 C 140.078 24.937 139.151 25.912 139.151 27.351 Z M 146.741 27.192 C 146.741 24.889 148.244 23.162 150.499 23.162 C 151.682 23.162 152.609 23.658 153.073 24.505 L 153.185 23.418 L 154.992 23.418 L 154.992 30.917 C 154.992 33.555 153.409 35.202 150.851 35.202 C 148.58 35.202 147.029 33.907 146.789 31.797 L 148.74 31.797 C 148.868 32.82 149.651 33.428 150.851 33.428 C 152.193 33.428 153.057 32.58 153.057 31.269 L 153.057 29.958 C 152.561 30.693 151.586 31.157 150.451 31.157 C 148.212 31.157 146.741 29.478 146.741 27.192 Z M 148.708 27.144 C 148.708 28.471 149.555 29.462 150.834 29.462 C 152.178 29.462 153.009 28.519 153.009 27.144 C 153.009 25.801 152.193 24.873 150.834 24.873 C 149.539 24.873 148.708 25.849 148.708 27.144 Z M 157.986 21.835 C 157.314 21.835 156.787 21.308 156.787 20.652 C 156.787 19.996 157.314 19.485 157.986 19.485 C 158.626 19.485 159.153 19.996 159.153 20.652 C 159.153 21.308 158.626 21.835 157.986 21.835 Z M 157.01 31.317 L 157.01 23.418 L 158.961 23.418 L 158.961 31.317 Z M 164.51 31.525 C 162.16 31.525 160.513 29.814 160.513 27.368 C 160.513 24.889 162.128 23.178 164.446 23.178 C 166.813 23.178 168.316 24.761 168.316 27.223 L 168.316 27.815 L 162.368 27.831 C 162.512 29.222 163.247 29.926 164.543 29.926 C 165.613 29.926 166.317 29.51 166.541 28.758 L 168.348 28.758 C 168.012 30.485 166.573 31.525 164.51 31.525 Z M 164.462 24.777 C 163.311 24.777 162.608 25.401 162.416 26.584 L 166.381 26.584 C 166.381 25.497 165.63 24.777 164.462 24.777 Z M 169.27 28.919 L 171.124 28.919 C 171.14 29.606 171.652 30.038 172.547 30.038 C 173.459 30.038 173.954 29.67 173.954 29.095 C 173.954 28.695 173.747 28.407 173.043 28.247 L 171.62 27.911 C 170.197 27.591 169.509 26.92 169.509 25.657 C 169.509 24.106 170.821 23.178 172.643 23.178 C 174.418 23.178 175.617 24.202 175.633 25.737 L 173.778 25.737 C 173.763 25.065 173.315 24.633 172.563 24.633 C 171.796 24.633 171.348 24.985 171.348 25.577 C 171.348 26.025 171.7 26.312 172.371 26.472 L 173.795 26.808 C 175.122 27.112 175.793 27.719 175.793 28.934 C 175.793 30.534 174.434 31.525 172.484 31.525 C 170.517 31.525 169.27 30.469 169.27 28.919 Z" fill="rgb(153, 27, 27)" height="35.202499838256834px" id="lGNhdmb4o" transform="translate(51.883 12.457)" width="184.8711923828125px"/></svg>