<svg xmlns="http://www.w3.org/2000/svg" width="1600" height="1000" viewBox="0 0 1600 1000">
  <defs>
    <linearGradient id="g" x1="0" y1="0" x2="1" y2="1">
      <stop offset="0" stop-color="#F5FBFF"/>
      <stop offset="0.55" stop-color="#D7F1FF"/>
      <stop offset="1" stop-color="#F7E7D7"/>
    </linearGradient>
  </defs>
  <rect width="1600" height="1000" fill="url(#g)"/>
  <path d="M0 730C220 610 420 610 610 730s390 120 600 0 390-120 390 0v270H0z" fill="#0B2948" opacity="0.06"/>
  <g fill="#0B2948" opacity="0.12">
    <rect x="220" y="190" width="420" height="560" rx="44"/>
    <rect x="700" y="240" width="680" height="510" rx="44"/>
  </g>
  <g fill="#0B2948" opacity="0.55">
    <path d="M320 310h220v18H320z"/>
    <path d="M320 348h170v18H320z"/>
    <path d="M800 340h420v18H800z"/>
    <path d="M800 378h320v18H800z"/>
  </g>
  <g stroke="#0B2948" stroke-opacity="0.22" fill="none" stroke-width="12" stroke-linecap="round">
    <path d="M930 610c70-94 168-94 238 0"/>
    <path d="M980 610c42-56 100-56 142 0"/>
  </g>
</svg>
