<svg xmlns="http://www.w3.org/2000/svg" width="1600" height="1000" viewBox="0 0 1600 1000">
  <defs>
    <linearGradient id="g" x1="0" y1="0" x2="1" y2="1">
      <stop offset="0" stop-color="#F2FCFF"/>
      <stop offset="0.55" stop-color="#D6F0FF"/>
      <stop offset="1" stop-color="#F7E6D8"/>
    </linearGradient>
  </defs>
  <rect width="1600" height="1000" fill="url(#g)"/>
  <g fill="#0B2948" opacity="0.10">
    <rect x="220" y="200" width="1160" height="620" rx="64"/>
  </g>
  <g fill="#ffffff" opacity="0.93">
    <rect x="280" y="260" width="560" height="500" rx="48"/>
    <rect x="880" y="260" width="440" height="500" rx="48"/>
  </g>
  <g fill="#0B2948" opacity="0.62">
    <path d="M360 380h360v18H360z"/>
    <path d="M360 418h260v18H360z"/>
    <path d="M980 380h220v18H980z"/>
    <path d="M980 418h170v18H980z"/>
  </g>
  <g stroke="#0B2948" stroke-opacity="0.22" fill="none" stroke-width="12" stroke-linecap="round">
    <path d="M1010 560c0-62 50-112 112-112s112 50 112 112-50 112-112 112-112-50-112-112z"/>
    <path d="M1070 560h104"/>
  </g>
</svg>
