<svg xmlns="http://www.w3.org/2000/svg" width="1600" height="1000" viewBox="0 0 1600 1000">
  <defs>
    <linearGradient id="g" x1="0" y1="0" x2="1" y2="1">
      <stop offset="0" stop-color="#E8F3FF"/>
      <stop offset="0.55" stop-color="#CFE8FF"/>
      <stop offset="1" stop-color="#F8F2E9"/>
    </linearGradient>
    <linearGradient id="a" x1="0" y1="1" x2="1" y2="0">
      <stop offset="0" stop-color="#0B2948" stop-opacity="0.12"/>
      <stop offset="1" stop-color="#0B2948" stop-opacity="0"/>
    </linearGradient>
  </defs>
  <rect width="1600" height="1000" fill="url(#g)"/>
  <circle cx="340" cy="260" r="180" fill="#8BD2E6" opacity="0.55"/>
  <circle cx="1180" cy="240" r="220" fill="#A8D8FF" opacity="0.35"/>
  <circle cx="1160" cy="760" r="260" fill="#F6E3CF" opacity="0.45"/>
  <rect x="190" y="220" width="520" height="560" rx="42" fill="#ffffff" opacity="0.9"/>
  <path d="M270 360h360c18 0 32 14 32 32v250c0 18-14 32-32 32H270c-18 0-32-14-32-32V392c0-18 14-32 32-32z" fill="#0B2948" opacity="0.08"/>
  <path d="M292 330h316c14 0 26 12 26 26v8H266v-8c0-14 12-26 26-26z" fill="#0B2948" opacity="0.18"/>
  <path d="M1120 330c0-64 52-116 116-116s116 52 116 116-52 116-116 116-116-52-116-116z" fill="#0B2948" opacity="0.08"/>
  <path d="M1148 330c0-48 39-88 88-88s88 39 88 88-39 88-88 88-88-39-88-88z" fill="#0B2948" opacity="0.10"/>
  <path d="M780 160h660v680H780z" fill="url(#a)"/>
  <g fill="#0B2948" opacity="0.68">
    <path d="M1185 322h103v16h-103z"/>
    <path d="M1185 354h62v16h-62z"/>
  </g>
</svg>
